<?xml version="1.0" encoding="UTF-8"?>
<svg version="1.1" xmlns="http://www.w3.org/2000/svg" width="512" height="512">
<path d="M0 0 C168.96 0 337.92 0 512 0 C512 168.96 512 337.92 512 512 C343.04 512 174.08 512 0 512 C0 343.04 0 174.08 0 0 Z " fill="#A288F2" transform="translate(0,0)"/>
<path d="M0 0 C0.93587448 -0.00700928 1.87174896 -0.01401855 2.83598328 -0.02124023 C5.91374839 -0.03877152 8.99058574 -0.02721454 12.06835938 -0.01367188 C14.21635107 -0.01636818 16.36434157 -0.02025176 18.5123291 -0.02526855 C23.00784966 -0.03115703 27.5030517 -0.0226214 31.99853516 -0.00390625 C37.75201015 0.01888261 43.50473871 0.00575608 49.25818634 -0.01819611 C53.69180901 -0.03267151 58.12525561 -0.02804003 62.55888367 -0.01768494 C64.67990711 -0.01502248 66.80094671 -0.01827041 68.92195129 -0.02760315 C71.88980261 -0.03779721 74.8564563 -0.0222272 77.82421875 0 C78.69507614 -0.00809692 79.56593353 -0.01619385 80.46318054 -0.02453613 C86.27201729 0.05578904 89.7108924 1.02212832 94.41210938 4.51757812 C98.97348287 9.51467588 98.98678416 13.92904555 98.9296875 20.35913086 C98.94020142 21.82124496 98.94020142 21.82124496 98.95092773 23.31289673 C98.96849186 26.52594735 98.95688925 29.73811272 98.94335938 32.95117188 C98.94605495 35.19027373 98.94993792 37.42937444 98.95495605 39.66847229 C98.96084917 44.35827798 98.95229468 49.04777863 98.93359375 53.73754883 C98.91081787 59.74102568 98.92392036 65.74378668 98.94788361 71.74723721 C98.96235766 76.37044133 98.95772791 80.99347658 98.94737244 85.61668587 C98.94470893 87.82981514 98.94796163 90.04295988 98.95729065 92.25607109 C98.96748089 95.35333564 98.95191904 98.44945156 98.9296875 101.54663086 C98.93778442 102.45646225 98.94588135 103.36629364 98.95422363 104.30369568 C98.87591376 110.2104976 97.86140576 113.68072299 94.41210938 118.51757812 C91.39939181 121.14672442 88.96315061 122.44244956 84.91210938 122.63867188 C80.18664145 122.3081704 76.00524656 121.79367379 72.41210938 118.51757812 C68.05257692 111.60736352 67.81124886 105.75615322 67.80273438 97.70507812 C67.78619812 96.49561523 67.76966187 95.28615234 67.75262451 94.04003906 C67.70426597 90.19916645 67.68279931 86.35868949 67.66210938 82.51757812 C67.63393973 79.9042771 67.60401093 77.29099441 67.57226562 74.67773438 C67.49850988 68.29108715 67.44679619 61.90455065 67.41210938 55.51757812 C58.53354569 64.37291645 49.65772573 73.23099485 40.78534603 82.0925293 C36.66495121 86.20771755 32.54363637 90.32197533 28.42016602 94.43408203 C24.43683188 98.40650798 20.45598387 102.38141004 16.47680855 106.35800171 C14.96233985 107.87063041 13.44699494 109.38238238 11.93073845 110.89321899 C9.79838487 113.01825677 7.66923926 115.14646172 5.54077148 117.27539062 C4.92073746 117.89182938 4.30070343 118.50826813 3.66188049 119.14338684 C-0.04502503 122.85892631 -3.55727841 126.69386621 -6.97587967 130.67662239 C-9.68157341 133.76659048 -12.57415509 136.66630016 -15.47460938 139.57226562 C-16.09890335 140.199888 -16.72319733 140.82751038 -17.3664093 141.47415161 C-18.67176368 142.78452128 -19.97843148 144.09358381 -21.28637695 145.40136719 C-23.28626053 147.40346004 -25.27797832 149.41345237 -27.26953125 151.42382812 C-28.54573479 152.7029622 -29.8224107 153.98162518 -31.09960938 155.25976562 C-31.69134445 155.85868622 -32.28307953 156.45760681 -32.89274597 157.07467651 C-33.45045181 157.62930573 -34.00815765 158.18393494 -34.58276367 158.75537109 C-35.06794968 159.24198212 -35.55313568 159.72859314 -36.05302429 160.22994995 C-39.59189218 163.19877264 -42.77599741 163.87575761 -47.33789062 164.01757812 C-48.32273437 164.06914062 -49.30757812 164.12070312 -50.32226562 164.17382812 C-59.25004157 162.37972961 -66.1122396 153.25667952 -72.25585938 147.04492188 C-73.2633366 146.03370344 -74.2712645 145.02293383 -75.27961731 144.0125885 C-77.91409029 141.37054015 -80.54250529 138.72254687 -83.1696167 136.07318115 C-85.83860274 133.38370269 -88.51327663 130.69989411 -91.1875 128.015625 C-95.89423487 123.289841 -100.59599988 118.55917095 -105.29411316 113.82481384 C-108.54136607 110.55850836 -111.79009993 107.29542405 -115.08789062 104.08007812 C-117.76432268 101.33673527 -120.16947437 98.48877523 -122.58789062 95.51757812 C-125.78874967 96.92776793 -127.91595754 98.60496209 -130.36935425 101.08544922 C-131.1066275 101.82575378 -131.84390076 102.56605835 -132.60351562 103.32879639 C-133.40257324 104.14132874 -134.20163086 104.95386108 -135.02490234 105.79101562 C-135.8741629 106.6464093 -136.72342346 107.50180298 -137.59841919 108.38311768 C-139.44268821 110.24169787 -141.2850687 112.10195762 -143.12466049 113.96514893 C-146.03549982 116.91262675 -148.95506709 119.85135328 -151.87625122 122.78857422 C-160.18073979 131.14132544 -168.47340772 139.50575384 -176.75732422 147.87890625 C-181.33453132 152.50526458 -185.91894072 157.12436443 -190.51114094 161.73584175 C-193.41472495 164.65248816 -196.30907433 167.57790511 -199.19685721 170.51019287 C-201.42051895 172.76288737 -203.65731559 175.00247812 -205.89208984 177.24414062 C-206.687099 178.05667297 -207.48210815 178.86920532 -208.3012085 179.70635986 C-213.34133169 184.72878739 -216.87881237 187.12017688 -224.08789062 187.89257812 C-229.31155274 187.33290004 -233.25922773 184.54701216 -236.58789062 180.51757812 C-237.55876856 177.60494431 -237.88342424 175.38020443 -238.02539062 172.33007812 C-238.08597656 171.42902344 -238.1465625 170.52796875 -238.20898438 169.59960938 C-236.5096687 161.1671561 -227.82053178 154.46479146 -221.97412109 148.64501953 C-221.01380839 147.68199106 -220.05392041 146.71853888 -219.09442139 145.75469971 C-216.50832069 143.1595473 -213.91601402 140.57068124 -211.32220221 137.9832387 C-208.60112559 135.26725384 -205.88496383 132.54636063 -203.16799927 129.82626343 C-198.61054186 125.26517807 -194.04890716 120.70830253 -189.48486328 116.15380859 C-184.21076418 110.89061793 -178.94394368 105.62022594 -173.6807946 100.3460871 C-169.15269424 95.80891158 -164.62070925 91.27564394 -160.0854522 86.74562204 C-157.38043189 84.04371681 -154.67677424 81.34048526 -151.97661972 78.63371658 C-149.44154882 76.09286864 -146.90163579 73.55696269 -144.35790253 71.0247879 C-142.98131742 69.65210682 -141.60964918 68.27450044 -140.23812866 66.89675903 C-139.41671387 66.08098389 -138.59529907 65.26520874 -137.74899292 64.42471313 C-137.0377873 63.71426157 -136.32658169 63.00381001 -135.59382439 62.27182961 C-131.93348794 59.07075151 -129.04163466 58.21020759 -124.21289062 58.14257812 C-122.84003906 58.10003906 -122.84003906 58.10003906 -121.43945312 58.05664062 C-114.99744908 59.09795087 -110.4410111 64.38244683 -106.03173828 68.84667969 C-105.40663361 69.47149231 -104.78152893 70.09630493 -104.13748169 70.74005127 C-102.08752467 72.79139348 -100.04472926 74.84971205 -98.00195312 76.90820312 C-96.5760705 78.33781876 -95.14974353 79.76699134 -93.72299194 81.19573975 C-89.98019353 84.94615193 -86.24344195 88.70253266 -82.50793457 92.46020508 C-78.69057711 96.29806959 -74.8675083 100.13023549 -71.04492188 103.96289062 C-63.55365666 111.47556594 -56.06876972 118.99456158 -48.58789062 126.51757812 C-45.33056502 125.08818441 -43.16648817 123.34546472 -40.65888977 120.83581543 C-39.88914825 120.0702684 -39.11940674 119.30472137 -38.32633972 118.51597595 C-37.49137466 117.67539139 -36.65640961 116.83480682 -35.79614258 115.96875 C-34.90958984 115.08409561 -34.02303711 114.19944122 -33.10961914 113.28797913 C-30.6825873 110.8640163 -28.26010879 108.43567067 -25.83969903 106.00510597 C-23.30634837 103.46296668 -20.76772195 100.92610597 -18.2297821 98.3885498 C-13.97032663 94.12815826 -9.71475978 89.86391374 -5.46166992 85.59716797 C-0.5412116 80.66096963 4.38446847 75.73003203 9.31316918 70.80206442 C14.05269362 66.06314979 18.78935671 61.32138655 23.5244236 56.57801819 C25.54076838 54.55813886 27.55796371 52.53911459 29.57581139 50.52073669 C32.38973473 47.70562462 35.19938489 44.88627197 38.00854492 42.06640625 C38.84958267 41.22582169 39.69062042 40.38523712 40.55714417 39.5191803 C41.31842621 38.75363327 42.07970825 37.98808624 42.86405945 37.19934082 C43.52900767 36.53271675 44.1939559 35.86609268 44.87905407 35.17926788 C46.49630287 33.5806949 46.49630287 33.5806949 47.41210938 31.51757812 C46.71577393 31.52868118 46.01943848 31.53978424 45.30200195 31.55122375 C38.71178627 31.65177034 32.12178731 31.72771635 25.53097534 31.77663898 C22.14319913 31.80263744 18.75606125 31.83785191 15.36865234 31.89477539 C11.46630195 31.95563774 7.5648489 31.9838386 3.66210938 32.00585938 C2.45659424 32.0316658 1.2510791 32.05747223 0.0090332 32.08406067 C-7.17996718 32.08644101 -12.06513243 31.31097453 -17.58789062 26.51757812 C-20.63258631 23.28258896 -20.83345891 20.37818523 -21.02539062 16.08007812 C-20.86496534 11.10689419 -20.11280911 8.22326166 -16.58789062 4.51757812 C-10.93668693 0.57906581 -6.79950346 -0.06321938 0 0 Z " fill="#090A1E" transform="translate(326.587890625,154.482421875)"/>
<path d="M0 0 C29.37 0 58.74 0 89 0 C85.91536226 1.54231887 82.95985365 2.76015913 79.72167969 3.90161133 C49.09667068 14.79238205 24.14947582 36.44770575 10.09326172 65.89990234 C6.17650291 74.65222159 3.42502543 83.7421088 1 93 C0.67 93 0.34 93 0 93 C0 62.31 0 31.62 0 0 Z " fill="#010101" transform="translate(0,0)"/>
<path d="M0 0 C29.04 0 58.08 0 88 0 C88 27.72 88 55.44 88 84 C85.88223458 80.82335187 84.77101863 77.88754567 83.4375 74.3125 C78.53224493 61.69346054 71.96463343 50.18076587 63 40 C61.97132813 38.77410156 61.97132813 38.77410156 60.921875 37.5234375 C44.60149548 18.56126993 23.64128519 7.85870405 0 1 C0 0.67 0 0.34 0 0 Z " fill="#010102" transform="translate(424,0)"/>
<path d="M0 0 C1.88659002 2.82988503 2.64617356 5.09414094 3.49487305 8.3425293 C10.74244815 35.88954916 28.23384159 62.64172598 53.03515625 77.48046875 C59.56222311 81.24281194 66.25125931 84.65562406 73 88 C73 88.33 73 88.66 73 89 C48.91 89 24.82 89 0 89 C0 59.63 0 30.26 0 0 Z " fill="#020102" transform="translate(0,423)"/>
<path d="M0 0 C0.33 0 0.66 0 1 0 C1 27.06 1 54.12 1 82 C-22.76 82 -46.52 82 -71 82 C-68.80882078 79.80882078 -66.57170536 78.75546519 -63.79589844 77.43823242 C-35.80024037 64.15034423 -15.25310684 41.91367666 -4 13 C-2.56327263 8.69452848 -1.24227414 4.3653097 0 0 Z " fill="#020103" transform="translate(511,430)"/>
</svg>
